<?xml version="1.0" standalone="no"?>
<!DOCTYPE svg PUBLIC "-//W3C//DTD SVG 20010904//EN"
 "http://www.w3.org/TR/2001/REC-SVG-20010904/DTD/svg10.dtd">
<svg version="1.0" xmlns="http://www.w3.org/2000/svg"
 width="452.000000pt" height="452.000000pt" viewBox="0 0 452.000000 452.000000"
 preserveAspectRatio="xMidYMid meet">
<metadata>
Created by potrace 1.14, written by Peter Selinger 2001-2017
</metadata>
<g transform="translate(0.000000,452.000000) scale(0.100000,-0.100000)"
fill="#000000" stroke="none">
<path d="M285 4506 c-96 -30 -168 -83 -218 -159 -72 -109 -67 54 -65 -2107 l3
-1945 27 -58 c37 -79 78 -128 141 -170 109 -72 -54 -67 2107 -65 l1945 3 58
27 c79 37 128 78 170 141 72 109 67 -54 65 2107 l-3 1945 -27 58 c-37 79 -78
128 -141 170 -108 72 54 67 -2091 66 -1528 0 -1939 -3 -1971 -13z m1065 -1926
l0 -760 380 0 c209 0 380 -1 380 -2 -1 -2 -29 -104 -63 -228 l-63 -225 -572
-3 -571 -2 -3 962 c-2 530 -3 964 -2 965 0 3 446 49 492 52 l22 1 0 -760z
m1729 700 c223 -23 388 -87 497 -192 176 -169 215 -468 94 -715 -115 -234
-329 -333 -715 -333 l-105 0 0 -335 0 -334 -32 -5 c-46 -7 -396 -36 -435 -36
l-33 0 0 980 0 980 314 0 c173 0 359 -5 415 -10z"/>
<path d="M2850 2662 l0 -212 74 0 c143 0 245 34 293 97 21 28 28 49 31 98 10
155 -60 208 -290 222 l-108 6 0 -211z"/>
</g>
</svg>
